<svg xmlns="http://www.w3.org/2000/svg" xmlns:xlink="http://www.w3.org/1999/xlink" width="244" height="36" viewBox="0 0 244 36">
  <defs>
    <clipPath id="clip-path">
      <rect id="Rectangle_5" data-name="Rectangle 5" width="33.637" height="33.639" fill="#fff"/>
    </clipPath>
  </defs>
  <g id="Logo" transform="translate(1.5 1.5)">
    <rect id="Box" width="244" height="36" transform="translate(-1.5 -1.5)" opacity="0"/>
    <g id="Type">
      <path id="Sanat" d="M-998.695-3028.594a7.148,7.148,0,0,1-1.831-5.1v-.915a.35.35,0,0,1,.4-.4h1.951a.352.352,0,0,1,.4.4v.8a5.154,5.154,0,0,0,1.076,3.406,3.457,3.457,0,0,0,2.788,1.294,3.6,3.6,0,0,0,2.787-1.235,4.686,4.686,0,0,0,1.116-3.266,4.76,4.76,0,0,0-.538-2.33,6.156,6.156,0,0,0-1.392-1.712q-.86-.739-2.849-2.252-1.993-1.473-3.146-2.528a8.585,8.585,0,0,1-1.892-2.529,7.655,7.655,0,0,1-.737-3.465,6.691,6.691,0,0,1,1.793-4.92,6.27,6.27,0,0,1,4.659-1.812,6.261,6.261,0,0,1,4.839,1.972,7.436,7.436,0,0,1,1.813,5.238v1a.352.352,0,0,1-.4.4h-1.991a.352.352,0,0,1-.4-.4v-1.036a5.216,5.216,0,0,0-1.056-3.4,3.435,3.435,0,0,0-2.808-1.294,3.4,3.4,0,0,0-2.628,1.135,4.582,4.582,0,0,0-1.036,3.206,4.882,4.882,0,0,0,.458,2.17,5.981,5.981,0,0,0,1.374,1.773q.917.836,2.709,2.191a41.361,41.361,0,0,1,3.564,2.848,8.24,8.24,0,0,1,1.812,2.39,7.018,7.018,0,0,1,.639,3.126,7.284,7.284,0,0,1-1.874,5.237,6.351,6.351,0,0,1-4.819,1.972A6.253,6.253,0,0,1-998.695-3028.594Zm70.217,1.633a.352.352,0,0,1-.4-.4v-24.854a.141.141,0,0,0-.159-.157h-4.939a.352.352,0,0,1-.4-.4v-1.673a.352.352,0,0,1,.4-.4h13.342a.353.353,0,0,1,.4.4v1.673a.353.353,0,0,1-.4.4h-5.257a.14.14,0,0,0-.159.157v24.854a.353.353,0,0,1-.4.4Zm-7.807,0a.411.411,0,0,1-.438-.36l-1-4.937a.135.135,0,0,0-.059-.12.257.257,0,0,0-.14-.04h-7.209a.254.254,0,0,0-.139.04.135.135,0,0,0-.059.12l-1,4.938a.38.38,0,0,1-.438.36h-2.031a.367.367,0,0,1-.3-.12.366.366,0,0,1-.06-.319l5.974-27.084a.412.412,0,0,1,.438-.359h2.389a.381.381,0,0,1,.438.359l6.054,27.084v.078a.317.317,0,0,1-.358.36Zm-5.337-23.58-3.186,15.653c0,.107.04.159.12.159h6.293c.079,0,.12-.052.12-.159l-3.187-15.653c-.026-.078-.053-.118-.079-.118S-941.6-3050.619-941.621-3050.541Zm-13.622,23.58a.439.439,0,0,1-.438-.319l-7.765-20.592c-.027-.08-.067-.113-.121-.1s-.079.059-.079.14l.041,20.47a.353.353,0,0,1-.4.4h-2.031a.352.352,0,0,1-.4-.4v-27.084a.352.352,0,0,1,.4-.4h2.31a.437.437,0,0,1,.438.32l7.807,20.63c.026.081.067.115.121.1s.079-.059.079-.139v-20.513a.353.353,0,0,1,.4-.4h1.993a.353.353,0,0,1,.4.4v27.084a.352.352,0,0,1-.4.4Zm-17.005,0a.41.41,0,0,1-.438-.36l-1-4.937a.135.135,0,0,0-.059-.12.261.261,0,0,0-.14-.04h-7.209a.254.254,0,0,0-.14.04.134.134,0,0,0-.06.12l-1,4.938a.381.381,0,0,1-.438.36h-2.031a.368.368,0,0,1-.3-.12.36.36,0,0,1-.059-.319l5.974-27.084a.41.41,0,0,1,.438-.359h2.389a.382.382,0,0,1,.438.359l6.054,27.084v.078a.318.318,0,0,1-.359.36Zm-5.337-23.58-3.186,15.653c0,.107.04.159.119.159h6.294c.079,0,.119-.052.119-.159l-3.186-15.653c-.027-.078-.053-.118-.079-.118S-977.559-3050.619-977.585-3050.541Z" transform="translate(1161.134 3057.323)" fill="#8e8e8e" stroke="rgba(0,0,0,0)" stroke-miterlimit="10" stroke-width="1"/>
      <path id="Icrypex" d="M2.767,6.891a.351.351,0,0,1-.4-.4V-20.525a.351.351,0,0,1,.4-.4H4.079a.351.351,0,0,1,.4.4V6.493a.351.351,0,0,1-.4.4Zm14.383.318A6.236,6.236,0,0,1,12.482,5.4,6.607,6.607,0,0,1,10.714.573V-14.684a6.484,6.484,0,0,1,1.768-4.768,6.273,6.273,0,0,1,4.669-1.788,6.324,6.324,0,0,1,4.708,1.788,6.485,6.485,0,0,1,1.768,4.768v.755a.43.43,0,0,1-.119.318.381.381,0,0,1-.278.119l-1.311.079a.351.351,0,0,1-.4-.4V-14.8a4.611,4.611,0,0,0-1.192-3.318,4.184,4.184,0,0,0-3.179-1.252,4.135,4.135,0,0,0-3.139,1.252A4.611,4.611,0,0,0,12.82-14.8V.732A4.682,4.682,0,0,0,14.012,4.07a4.1,4.1,0,0,0,3.139,1.271A4.166,4.166,0,0,0,20.309,4.07,4.637,4.637,0,0,0,21.521.732V-.182a.351.351,0,0,1,.4-.4L23.23-.5a.351.351,0,0,1,.4.4V.573A6.607,6.607,0,0,1,21.859,5.4,6.286,6.286,0,0,1,17.151,7.209Zm23.681-.318a.463.463,0,0,1-.477-.318l-4.371-12.6a.156.156,0,0,0-.159-.119H31.891a.14.14,0,0,0-.159.159V6.493a.351.351,0,0,1-.4.4H30.024a.351.351,0,0,1-.4-.4V-20.525a.351.351,0,0,1,.4-.4h6.159a5.542,5.542,0,0,1,4.49,2.066,8.2,8.2,0,0,1,1.709,5.4,8.464,8.464,0,0,1-1.152,4.53A5.8,5.8,0,0,1,38.09-6.38a.145.145,0,0,0-.119.2L42.46,6.454l.04.159q0,.278-.358.278Zm-8.94-25.945a.14.14,0,0,0-.159.159V-8.049a.14.14,0,0,0,.159.159h4.053a3.787,3.787,0,0,0,3.139-1.53,6.379,6.379,0,0,0,1.192-4.033,6.447,6.447,0,0,0-1.192-4.073,3.787,3.787,0,0,0-3.139-1.53ZM51.718,6.891a.351.351,0,0,1-.4-.4V-5.824a.314.314,0,0,0-.04-.2L45.8-20.445l-.04-.159q0-.318.358-.318h1.391a.463.463,0,0,1,.477.318L52.274-8.446a.127.127,0,0,0,.119.079.127.127,0,0,0,.119-.079L56.764-20.6a.463.463,0,0,1,.477-.318h1.391a.342.342,0,0,1,.3.139.336.336,0,0,1,.02.338L53.466-6.022a.314.314,0,0,0-.04.2V6.493a.351.351,0,0,1-.4.4ZM69.955-21a5.521,5.521,0,0,1,4.49,2.086,8.348,8.348,0,0,1,1.709,5.463,8.17,8.17,0,0,1-1.689,5.4,5.487,5.487,0,0,1-4.43,2.026h-4.41a.14.14,0,0,0-.159.159V6.493a.351.351,0,0,1-.4.4H63.757a.351.351,0,0,1-.4-.4V-20.6a.351.351,0,0,1,.4-.4ZM69.717-7.771a3.77,3.77,0,0,0,3.139-1.55,6.533,6.533,0,0,0,1.192-4.092,6.6,6.6,0,0,0-1.192-4.132,3.77,3.77,0,0,0-3.139-1.55H65.624a.14.14,0,0,0-.159.159V-7.93a.14.14,0,0,0,.159.159Zm23.76-11.681a.351.351,0,0,1-.4.4H83.663a.14.14,0,0,0-.159.159V-8.128a.14.14,0,0,0,.159.159H89.7a.351.351,0,0,1,.4.4V-6.5a.351.351,0,0,1-.4.4H83.663a.14.14,0,0,0-.159.159V4.864a.14.14,0,0,0,.159.159H93.08a.351.351,0,0,1,.4.4V6.493a.351.351,0,0,1-.4.4H81.8a.351.351,0,0,1-.4-.4V-20.525a.351.351,0,0,1,.4-.4H93.08a.351.351,0,0,1,.4.4ZM97.848,6.891a.342.342,0,0,1-.3-.139.336.336,0,0,1-.02-.338L103.172-6.9a.2.2,0,0,0,0-.238L97.53-20.445l-.04-.159q0-.318.358-.318h1.43a.437.437,0,0,1,.437.318L104.2-9.281q.04.119.119.119t.119-.119l4.49-11.324a.437.437,0,0,1,.437-.318h1.391a.342.342,0,0,1,.3.139.336.336,0,0,1,.02.338L105.437-7.1a.367.367,0,0,0,0,.238l5.642,13.271.04.159q0,.318-.358.318H109.37a.437.437,0,0,1-.437-.318l-4.49-11.284q-.04-.119-.119-.1a.178.178,0,0,0-.119.1L99.675,6.573a.437.437,0,0,1-.437.318Z" transform="translate(41.548 23.862)" fill="#fff"/>
    </g>
    <g id="Symbol">
      <g id="Group_7836" data-name="Group 7836" transform="translate(0)">
        <g id="Group_7835" data-name="Group 7835" transform="translate(0 0)" clip-path="url(#clip-path)">
          <g id="Group_7834" data-name="Group 7834">
            <g id="Group_7833" data-name="Group 7833" clip-path="url(#clip-path)">
              <path id="Path_6" data-name="Path 6" d="M729.566,621.854a1.347,1.347,0,0,0-1.9,0h0l.255-.255-7.375,7.377a1.345,1.345,0,1,0,1.877,1.928l.026-.026,8.064-8.065a.013.013,0,0,0,0-.018h0Z" transform="translate(-713.874 -600.566)" fill="#fff"/>
              <path id="Path_7" data-name="Path 7" d="M789.238,619.816,777.06,607.633a1.358,1.358,0,0,0-1.919,0h0l-1.711,1.711a.012.012,0,0,0,0,.017h0a.012.012,0,0,0,.016,0,1.345,1.345,0,0,1,1.7.164l12.14,12.143a1.391,1.391,0,0,0,1.861.131,1.346,1.346,0,0,0,.171-1.9c-.026-.031-.053-.06-.081-.089" transform="translate(-759.235 -588.458)" fill="#fff"/>
              <path id="Path_8" data-name="Path 8" d="M793.652,510.019a1.347,1.347,0,0,0,1.906,0l.051-.051,7.075-7.072a1.345,1.345,0,1,0-1.856-1.948h0c-.015.015-.031.03-.046.046l-8.071,8.068a.013.013,0,0,0,0,.018Z" transform="translate(-775.649 -497.667)" fill="#fff"/>
              <path id="Path_9" data-name="Path 9" d="M700.668,483.322l12.179,12.183a1.358,1.358,0,0,0,1.919,0h0l1.711-1.712a.012.012,0,0,0,0-.017.012.012,0,0,0-.016,0,1.345,1.345,0,0,1-1.7-.164l-12.14-12.143a1.391,1.391,0,0,0-1.861-.131,1.346,1.346,0,0,0-.171,1.9c.026.031.053.061.081.089" transform="translate(-696.969 -481.04)" fill="#fff"/>
              <path id="Path_10" data-name="Path 10" d="M707.125,532.406a1.359,1.359,0,0,0,0-1.922l-7.061-7.073a1.392,1.392,0,0,0-1.863-.131,1.348,1.348,0,0,0-.167,1.9c.026.031.053.061.081.089l8.063,8.075a.013.013,0,0,0,.018,0h0Z" transform="translate(-694.794 -516.743)" fill="#fff"/>
              <path id="Path_11" data-name="Path 11" d="M680.341,591.93l12.179-12.183a1.359,1.359,0,0,0,0-1.921l-1.711-1.711a.012.012,0,0,0-.017,0h0a.013.013,0,0,0,0,.013,1.346,1.346,0,0,1-.163,1.7l-12.14,12.144a1.392,1.392,0,0,0-.13,1.862,1.345,1.345,0,0,0,1.894.171h0q.047-.039.089-.082" transform="translate(-678.061 -561.967)" fill="#fff"/>
              <path id="Path_12" data-name="Path 12" d="M818.911,597.038a1.349,1.349,0,0,0,.005,1.908l7.133,7.126a1.345,1.345,0,0,0,1.927-1.877l-.026-.026-8.079-8.074a.014.014,0,0,0-.019,0Z" transform="translate(-797.62 -578.972)" fill="#fff"/>
              <path id="Path_13" data-name="Path 13" d="M816.85,503.912,804.672,516.1a1.359,1.359,0,0,0,0,1.921l1.711,1.711a.013.013,0,0,0,.018,0,.012.012,0,0,0,0-.016,1.346,1.346,0,0,1,.164-1.705l12.14-12.143a1.392,1.392,0,0,0,.13-1.862,1.345,1.345,0,0,0-1.894-.172c-.031.026-.062.053-.091.082" transform="translate(-785.494 -500.173)" fill="#fff"/>
            </g>
          </g>
        </g>
      </g>
    </g>
  </g>
</svg>
