<svg xmlns="http://www.w3.org/2000/svg" xmlns:xlink="http://www.w3.org/1999/xlink" width="340" height="320" viewBox="0 0 340 320">
  <defs>
    <radialGradient id="radial-gradient" cx="-0.039" cy="-2.406" r="12.144" gradientTransform="translate(0.441) scale(0.119 1)" gradientUnits="objectBoundingBox">
      <stop offset="0" stop-color="#1a1a1a"/>
      <stop offset="1" stop-color="#0d0d0d"/>
    </radialGradient>
    <radialGradient id="radial-gradient-2" cx="-0.024" cy="0.047" r="5.007" gradientTransform="translate(0.355) scale(0.289 1)" xlink:href="#radial-gradient"/>
    <radialGradient id="radial-gradient-3" cx="-0.039" cy="-0.729" r="2.508" gradientTransform="translate(0.212) scale(0.575 1)" xlink:href="#radial-gradient"/>
    <radialGradient id="radial-gradient-4" cx="0.113" cy="-2.278" r="13.982" gradientTransform="matrix(1, 0, 0, 1, 0, 0)" xlink:href="#radial-gradient"/>
  </defs>
  <g id="form_result_icon_success" transform="translate(-96.205 -106.49)">
    <rect id="box" width="340" height="320" transform="translate(96.205 106.49)" fill="#fff" opacity="0"/>
    <g id="thankyou_icon" transform="translate(98.205 109.687)">
      <path id="Path_5287" data-name="Path 5287" d="M233.746,380.467c0,.085.006.169.006.254a19.5,19.5,0,0,1-19.5,19.5h-.163v17.211H525.115V380.467Z" transform="translate(-198.204 -287.382)" fill="url(#radial-gradient)"/>
      <path id="Path_5288" data-name="Path 5288" d="M265.029,386.94H240a23,23,0,0,1-19.439,19.517V417h31.664Z" transform="translate(-201.226 -290.406)" fill="#1feabb" opacity="0.9"/>
      <path id="Path_5289" data-name="Path 5289" d="M495.673,206.037l-279.835,54.4a12.974,12.974,0,0,0-10.261,15.213l.9,4.655c.053-.011.106-.025.159-.035a19.5,19.5,0,0,1,22.807,15.173l286.016-55.6L510.886,216.3a12.976,12.976,0,0,0-15.213-10.263Z" transform="translate(-194.114 -205.796)" fill="url(#radial-gradient-2)"/>
      <path id="Path_5290" data-name="Path 5290" d="M274.25,328.476l6.833-31.953-40.164,7.807L237.1,322.189a23.064,23.064,0,0,1,9.615,11.64Z" transform="translate(-208.951 -248.173)" fill="#1feabb" opacity="0.9"/>
      <path id="Path_5291" data-name="Path 5291" d="M214.091,458.446V624.435a12.976,12.976,0,0,0,12.977,12.977H512.139a12.976,12.976,0,0,0,12.976-12.977V458.446Z" transform="translate(-198.204 -323.805)" fill="url(#radial-gradient-3)"/>
      <path id="Path_5292" data-name="Path 5292" d="M200.329,350.827a16.05,16.05,0,1,0,16.051,16.05,16.05,16.05,0,0,0-16.051-16.05Zm0,22.043a5.993,5.993,0,1,1,5.993-5.993A5.993,5.993,0,0,1,200.329,372.87Z" transform="translate(-184.279 -273.538)" fill="url(#radial-gradient-4)"/>
      <path id="Path_5293" data-name="Path 5293" d="M396.866,273.5,356.7,281.31l-6.833,31.953,40.164-7.807Z" transform="translate(-261.624 -237.421)" fill="#1feabb" opacity="0.9"/>
      <path id="Path_5294" data-name="Path 5294" d="M515.29,250.484l-40.164,7.807-6.833,31.953,40.164-7.807Z" transform="translate(-316.938 -226.669)" fill="#1feabb" opacity="0.9"/>
      <path id="Path_5295" data-name="Path 5295" d="M633.715,227.464l-40.164,7.807-6.833,31.953,40.164-7.807Z" transform="translate(-372.252 -215.917)" fill="#1feabb" opacity="0.9"/>
      <path id="Path_5296" data-name="Path 5296" d="M740.954,219.979a9.514,9.514,0,0,0-11.171-7.534l-17.807,3.461-6.833,31.954,39.729-7.722Z" transform="translate(-427.567 -208.819)" fill="#1feabb" opacity="0.9"/>
      <path id="Path_5297" data-name="Path 5297" d="M323.842,417h40.916l12.8-30.061H336.646Z" transform="translate(-249.467 -290.406)" fill="#1feabb" opacity="0.9"/>
      <path id="Path_5298" data-name="Path 5298" d="M444.483,417H485.4l12.8-30.061H457.286Z" transform="translate(-305.816 -290.406)" fill="#1feabb" opacity="0.9"/>
      <path id="Path_5299" data-name="Path 5299" d="M565.124,417H606.04l12.8-30.061H577.928Z" transform="translate(-362.166 -290.406)" fill="#1feabb" opacity="0.9"/>
      <path id="Path_5300" data-name="Path 5300" d="M685.765,417h40.916l12.8-30.061H698.569Z" transform="translate(-418.516 -290.406)" fill="#1feabb" opacity="0.9"/>
    </g>
    <path id="TEŞEKKÜRLER" d="M44.058,20.831h-9.1V49H31.27V20.831H22.2v-3.34H44.058ZM65.251,49h-16.7V17.491h16v3.34h-12.3V31.312H63.625V34.63H52.243V45.66H65.251Zm4.142-1.274V43.375a8.449,8.449,0,0,0,1.791,1.187,14.509,14.509,0,0,0,2.2.89,17.492,17.492,0,0,0,2.318.56,12.924,12.924,0,0,0,2.153.2,8.435,8.435,0,0,0,5.087-1.263A4.739,4.739,0,0,0,84.06,39.09a6.312,6.312,0,0,0-1.549-1.725,15.371,15.371,0,0,0-2.34-1.494q-1.351-.714-2.911-1.505-1.648-.835-3.076-1.692a13.33,13.33,0,0,1-2.483-1.89,7.882,7.882,0,0,1-1.659-2.34,7.243,7.243,0,0,1-.6-3.065,7.208,7.208,0,0,1,.945-3.746,8.1,8.1,0,0,1,2.483-2.626,11.256,11.256,0,0,1,3.5-1.538,16.047,16.047,0,0,1,4.01-.505q4.658,0,6.79,1.121v4.153A12.307,12.307,0,0,0,80.006,20.3a11.781,11.781,0,0,0-2.417.253,6.827,6.827,0,0,0-2.153.824A4.77,4.77,0,0,0,73.9,22.853a3.908,3.908,0,0,0-.593,2.2,4.524,4.524,0,0,0,.45,2.087,5.116,5.116,0,0,0,1.329,1.6,13.24,13.24,0,0,0,2.142,1.406q1.263.681,2.911,1.494,1.692.835,3.208,1.758A14.663,14.663,0,0,1,86,35.443a9.081,9.081,0,0,1,1.813,2.483,6.98,6.98,0,0,1,.67,3.12,7.912,7.912,0,0,1-.912,3.944,7.484,7.484,0,0,1-2.461,2.626,10.748,10.748,0,0,1-3.571,1.461,19.554,19.554,0,0,1-4.263.45,17.369,17.369,0,0,1-1.846-.121q-1.1-.121-2.241-.352a18.288,18.288,0,0,1-2.164-.571,6.735,6.735,0,0,1-1.632-.757Zm14.15,6.9q0,3.867-6.042,3.867-.835,0-1.428-.044V56.471a11.611,11.611,0,0,0,1.538.132q3.1,0,3.1-1.978,0-1.714-2.834-1.714a8.964,8.964,0,0,0-.9.088V49H79.35v2.285a4.872,4.872,0,0,1,3.065.879,2.938,2.938,0,0,1,1.129,2.461ZM111.021,49h-16.7V17.491h16v3.34h-12.3V31.312H109.4V34.63H98.013V45.66h13.008Zm27.543,0h-5.142L121.25,34.586a8.786,8.786,0,0,1-.835-1.1h-.088V49h-3.691V17.491h3.691V32.3h.088a8.686,8.686,0,0,1,.835-1.077L133.027,17.49h4.592L124.106,32.608Zm25.654,0h-5.142L146.9,34.586a8.784,8.784,0,0,1-.835-1.1h-.088V49h-3.691V17.491h3.691V32.3h.088a8.686,8.686,0,0,1,.835-1.077L158.677,17.49h4.592L149.76,32.608Zm26.774-12.744q0,13.271-11.975,13.271-11.47,0-11.47-12.766V17.491h3.691V36.52q0,9.69,8.174,9.69,7.888,0,7.888-9.36V17.491h3.691Zm-7.515-21.687a2.108,2.108,0,0,1-1.516-.615,2.229,2.229,0,0,1-.022-3.1,2.034,2.034,0,0,1,1.494-.615,2.141,2.141,0,0,1,1.56.626,2.06,2.06,0,0,1,.637,1.527,2.134,2.134,0,0,1-.615,1.538,2.05,2.05,0,0,1-1.538.639Zm-8.437,0a2.14,2.14,0,0,1-1.571-.648,2.089,2.089,0,0,1-.648-1.527,2.068,2.068,0,0,1,.626-1.538,2.1,2.1,0,0,1,1.527-.615,2.189,2.189,0,0,1,1.56.626,2.026,2.026,0,0,1,.659,1.527,2.1,2.1,0,0,1-.637,1.538,2.071,2.071,0,0,1-1.516.637ZM221,49h-4.4l-5.273-8.833a19.238,19.238,0,0,0-1.406-2.1,8.016,8.016,0,0,0-1.4-1.417,4.833,4.833,0,0,0-1.538-.8,6.325,6.325,0,0,0-1.857-.253H202.1V49h-3.691V17.491h9.4a13.4,13.4,0,0,1,3.812.516,8.53,8.53,0,0,1,3.032,1.571,7.3,7.3,0,0,1,2.01,2.626,8.707,8.707,0,0,1,.725,3.68,8.862,8.862,0,0,1-.494,3.021,7.89,7.89,0,0,1-1.406,2.45,8.524,8.524,0,0,1-2.2,1.835,11.217,11.217,0,0,1-2.889,1.176v.088a6.646,6.646,0,0,1,1.373.8,7.557,7.557,0,0,1,1.11,1.066,14.116,14.116,0,0,1,1.044,1.4q.516.78,1.154,1.813ZM202.1,20.831V32.257h5.01a7.6,7.6,0,0,0,2.56-.417,5.926,5.926,0,0,0,2.032-1.2,5.43,5.43,0,0,0,1.34-1.912,6.4,6.4,0,0,0,.483-2.538,4.939,4.939,0,0,0-1.637-3.944,7.032,7.032,0,0,0-4.735-1.417ZM241.222,49H224.875V17.491h3.691V45.66h12.656ZM262.3,49H245.6V17.491h16v3.34H249.3V31.312h11.38V34.63H249.3V45.66h13.008Zm28.2,0H286.11l-5.273-8.833a19.236,19.236,0,0,0-1.406-2.1,8.016,8.016,0,0,0-1.4-1.417,4.832,4.832,0,0,0-1.538-.8,6.325,6.325,0,0,0-1.857-.253H271.6V49H267.92V17.491h9.4a13.4,13.4,0,0,1,3.812.516,8.53,8.53,0,0,1,3.032,1.571,7.3,7.3,0,0,1,2.01,2.626,8.706,8.706,0,0,1,.725,3.68,8.861,8.861,0,0,1-.494,3.021A7.889,7.889,0,0,1,285,31.356a8.524,8.524,0,0,1-2.2,1.835,11.217,11.217,0,0,1-2.889,1.176v.088a6.646,6.646,0,0,1,1.373.8,7.556,7.556,0,0,1,1.11,1.066,14.113,14.113,0,0,1,1.044,1.4q.516.78,1.154,1.813Zm-18.9-28.169V32.257h5.01a7.6,7.6,0,0,0,2.56-.417,5.926,5.926,0,0,0,2.032-1.2,5.43,5.43,0,0,0,1.34-1.912,6.4,6.4,0,0,0,.483-2.538,4.939,4.939,0,0,0-1.637-3.944,7.032,7.032,0,0,0-4.735-1.417Z" transform="translate(113.457 291.49)" fill="#fff"/>
  </g>
</svg>
