<svg xmlns="http://www.w3.org/2000/svg" xmlns:xlink="http://www.w3.org/1999/xlink" width="196" height="28" viewBox="0 0 196 28">
  <defs>
    <linearGradient id="linear-gradient" x1="0.042" y1="0.956" x2="0.906" y2="0.044" gradientUnits="objectBoundingBox">
      <stop offset="0" stop-color="#0a93eb"/>
      <stop offset="1" stop-color="#00387c"/>
    </linearGradient>
    <linearGradient id="linear-gradient-2" x1="0.945" y1="0.993" x2="0.084" y2="0.054" gradientUnits="objectBoundingBox">
      <stop offset="0" stop-color="#00387c"/>
      <stop offset="1" stop-color="#0a93eb"/>
    </linearGradient>
    <linearGradient id="linear-gradient-3" x1="0.112" y1="0.936" x2="0.973" y2="0.028" xlink:href="#linear-gradient-2"/>
    <linearGradient id="linear-gradient-4" x1="0.052" y1="0.004" x2="0.919" y2="0.949" xlink:href="#linear-gradient-2"/>
    <linearGradient id="linear-gradient-5" x1="0.029" y1="0.026" x2="0.945" y2="0.896" xlink:href="#linear-gradient"/>
    <linearGradient id="linear-gradient-6" x1="0.008" y1="0.944" x2="0.948" y2="0.082" xlink:href="#linear-gradient-2"/>
    <linearGradient id="linear-gradient-7" x1="0.039" y1="0.089" x2="0.959" y2="0.961" xlink:href="#linear-gradient-2"/>
    <linearGradient id="linear-gradient-8" x1="0.04" y1="0.929" x2="0.979" y2="0.068" xlink:href="#linear-gradient"/>
  </defs>
  <g id="Logo" transform="translate(0.5 0.5)">
    <rect id="Box" width="196" height="28" transform="translate(-0.5 -0.5)" opacity="0"/>
    <g id="Type">
      <path id="Sanat" d="M-63.014,756.285a5.745,5.745,0,0,1-1.471-4.1v-.735a.282.282,0,0,1,.319-.32H-62.6a.282.282,0,0,1,.319.32v.64a4.14,4.14,0,0,0,.864,2.736,2.778,2.778,0,0,0,2.24,1.04,2.894,2.894,0,0,0,2.24-.992,3.77,3.77,0,0,0,.9-2.624,3.819,3.819,0,0,0-.432-1.872,4.961,4.961,0,0,0-1.12-1.376q-.69-.593-2.289-1.809-1.6-1.183-2.528-2.03a6.913,6.913,0,0,1-1.52-2.032,6.149,6.149,0,0,1-.592-2.785,5.379,5.379,0,0,1,1.44-3.953,5.038,5.038,0,0,1,3.744-1.456,5.031,5.031,0,0,1,3.888,1.584,5.977,5.977,0,0,1,1.456,4.208v.8a.282.282,0,0,1-.319.319h-1.6a.282.282,0,0,1-.32-.319V740.7a4.191,4.191,0,0,0-.848-2.734,2.759,2.759,0,0,0-2.256-1.04,2.732,2.732,0,0,0-2.111.912,3.684,3.684,0,0,0-.833,2.577,3.921,3.921,0,0,0,.368,1.742,4.8,4.8,0,0,0,1.1,1.426q.736.67,2.177,1.759a33.332,33.332,0,0,1,2.863,2.288,6.644,6.644,0,0,1,1.456,1.921,5.655,5.655,0,0,1,.513,2.511,5.853,5.853,0,0,1-1.506,4.207,5.1,5.1,0,0,1-3.872,1.584A5.026,5.026,0,0,1-63.014,756.285ZM-6.6,757.6a.283.283,0,0,1-.32-.321V737.309a.113.113,0,0,0-.128-.128h-3.968a.282.282,0,0,1-.319-.32v-1.345a.282.282,0,0,1,.319-.319H-.3a.283.283,0,0,1,.32.319v1.345a.283.283,0,0,1-.32.32H-4.519a.113.113,0,0,0-.128.128v19.967a.284.284,0,0,1-.32.321Zm-6.272,0a.33.33,0,0,1-.352-.289l-.8-3.967a.109.109,0,0,0-.048-.1.2.2,0,0,0-.113-.031h-5.791a.2.2,0,0,0-.113.031.109.109,0,0,0-.048.1l-.8,3.967a.306.306,0,0,1-.352.289h-1.633a.3.3,0,0,1-.239-.1.3.3,0,0,1-.049-.256l4.8-21.761a.33.33,0,0,1,.352-.288h1.92a.305.305,0,0,1,.352.288l4.865,21.761v.063a.255.255,0,0,1-.288.289Zm-4.289-18.945-2.56,12.576c0,.086.032.128.1.128h5.055c.065,0,.1-.041.1-.128l-2.56-12.576c-.022-.063-.043-.1-.064-.1S-17.138,738.59-17.159,738.653ZM-28.1,757.6a.352.352,0,0,1-.352-.257L-34.694,740.8c-.022-.065-.054-.091-.1-.08s-.064.049-.064.112l.033,16.447a.284.284,0,0,1-.321.321h-1.632a.283.283,0,0,1-.319-.321v-21.76a.283.283,0,0,1,.319-.319h1.856a.351.351,0,0,1,.352.256l6.272,16.575c.021.065.054.092.1.08s.064-.048.064-.111V735.516a.283.283,0,0,1,.319-.319h1.6a.283.283,0,0,1,.319.319v21.76a.283.283,0,0,1-.319.321Zm-13.663,0a.329.329,0,0,1-.352-.289l-.8-3.967a.107.107,0,0,0-.048-.1.2.2,0,0,0-.112-.031H-48.87a.2.2,0,0,0-.112.031.108.108,0,0,0-.049.1l-.8,3.967a.306.306,0,0,1-.352.289h-1.632a.3.3,0,0,1-.24-.1.286.286,0,0,1-.048-.256l4.8-21.761a.33.33,0,0,1,.352-.288h1.921a.307.307,0,0,1,.352.288l4.864,21.761v.063a.255.255,0,0,1-.288.289Zm-4.288-18.945-2.561,12.576c0,.086.032.128.1.128h5.056c.064,0,.1-.041.1-.128l-2.561-12.576c-.022-.063-.043-.1-.064-.1S-46.033,738.59-46.054,738.653Z" transform="translate(193.518 -733.204)" fill="#8e8e8e" stroke="rgba(0,0,0,0)" stroke-miterlimit="10" stroke-width="1"/>
      <path id="Icrypex" d="M2.689,1.361a.282.282,0,0,1-.319-.319V-20.665a.282.282,0,0,1,.319-.319H3.743a.282.282,0,0,1,.319.319V1.042a.282.282,0,0,1-.319.319Zm11.556.255A5.01,5.01,0,0,1,10.494.164,5.308,5.308,0,0,1,9.074-3.715V-15.973A5.21,5.21,0,0,1,10.494-19.8a5.04,5.04,0,0,1,3.751-1.437A5.081,5.081,0,0,1,18.028-19.8a5.21,5.21,0,0,1,1.421,3.831v.607a.345.345,0,0,1-.1.255.306.306,0,0,1-.223.1l-1.053.064a.282.282,0,0,1-.319-.319v-.8a3.7,3.7,0,0,0-.958-2.666,3.362,3.362,0,0,0-2.554-1.006,3.322,3.322,0,0,0-2.522,1.006,3.7,3.7,0,0,0-.958,2.666V-3.587a3.762,3.762,0,0,0,.958,2.681A3.3,3.3,0,0,0,14.245.116,3.347,3.347,0,0,0,16.783-.905a3.726,3.726,0,0,0,.974-2.681v-.734a.282.282,0,0,1,.319-.319l1.053.064a.282.282,0,0,1,.319.319v.543A5.308,5.308,0,0,1,18.028.164,5.051,5.051,0,0,1,14.245,1.617Zm19.026-.255a.372.372,0,0,1-.383-.255L29.377-9.014a.125.125,0,0,0-.128-.1h-3.16a.113.113,0,0,0-.128.128V1.042a.282.282,0,0,1-.319.319H24.588a.282.282,0,0,1-.319-.319V-20.665a.282.282,0,0,1,.319-.319h4.948a4.453,4.453,0,0,1,3.607,1.66,6.591,6.591,0,0,1,1.373,4.341,6.8,6.8,0,0,1-.926,3.639A4.662,4.662,0,0,1,31.068-9.3a.116.116,0,0,0-.1.16L34.58,1.01l.032.128q0,.223-.287.223ZM26.088-19.484a.113.113,0,0,0-.128.128v8.715a.113.113,0,0,0,.128.128h3.256a3.043,3.043,0,0,0,2.522-1.229,5.125,5.125,0,0,0,.958-3.24,5.18,5.18,0,0,0-.958-3.272,3.043,3.043,0,0,0-2.522-1.229ZM42.018,1.361a.282.282,0,0,1-.319-.319v-9.9a.253.253,0,0,0-.032-.16L37.261-20.6l-.032-.128q0-.255.287-.255h1.117a.372.372,0,0,1,.383.255l3.448,9.768a.1.1,0,0,0,.1.064.1.1,0,0,0,.1-.064l3.416-9.768a.372.372,0,0,1,.383-.255h1.117a.275.275,0,0,1,.239.112.27.27,0,0,1,.016.271L43.422-9.014a.253.253,0,0,0-.032.16v9.9a.282.282,0,0,1-.319.319ZM56.67-21.048a4.436,4.436,0,0,1,3.607,1.676,6.707,6.707,0,0,1,1.373,4.389,6.564,6.564,0,0,1-1.357,4.341,4.409,4.409,0,0,1-3.559,1.628H53.191a.113.113,0,0,0-.128.128V1.042a.282.282,0,0,1-.319.319H51.69a.282.282,0,0,1-.319-.319V-20.729a.282.282,0,0,1,.319-.319Zm-.192,10.63A3.029,3.029,0,0,0,59-11.663a5.249,5.249,0,0,0,.958-3.288A5.3,5.3,0,0,0,59-18.271a3.029,3.029,0,0,0-2.522-1.245H53.191a.113.113,0,0,0-.128.128v8.843a.113.113,0,0,0,.128.128ZM75.568-19.8a.282.282,0,0,1-.319.319H67.684a.113.113,0,0,0-.128.128v8.651a.113.113,0,0,0,.128.128h4.852a.282.282,0,0,1,.319.319V-9.4a.282.282,0,0,1-.319.319H67.684a.113.113,0,0,0-.128.128V-.267a.113.113,0,0,0,.128.128h7.566a.282.282,0,0,1,.319.319v.862a.282.282,0,0,1-.319.319H66.183a.282.282,0,0,1-.319-.319V-20.665a.282.282,0,0,1,.319-.319h9.066a.282.282,0,0,1,.319.319ZM79.08,1.361a.275.275,0,0,1-.239-.112.27.27,0,0,1-.016-.271L83.358-9.716a.16.16,0,0,0,0-.192L78.825-20.6l-.032-.128q0-.255.287-.255h1.149a.351.351,0,0,1,.351.255l3.607,9.1q.032.1.1.1t.1-.1l3.607-9.1a.351.351,0,0,1,.351-.255h1.117a.275.275,0,0,1,.239.112.27.27,0,0,1,.016.271L85.177-9.876a.3.3,0,0,0,0,.192L89.71.978l.032.128q0,.255-.287.255H88.337a.351.351,0,0,1-.351-.255L84.379-7.96q-.032-.1-.1-.08a.143.143,0,0,0-.1.08L80.548,1.106a.351.351,0,0,1-.351.255Z" transform="translate(32.91 23.347)" fill="#fff"/>
    </g>
    <g id="Symbol">
      <path id="Path" d="M783.748,555.2a1.082,1.082,0,0,0-1.53,0l-5.924,5.926a1.08,1.08,0,1,0,1.528,1.528l6.683-6.685a.011.011,0,0,0,0-.015Z" transform="translate(-770.937 -538.304)" fill="url(#linear-gradient)"/>
      <path id="Path-2" data-name="Path" d="M819.54,557.731l-9.782-9.786a1.091,1.091,0,0,0-1.542,0l-1.374,1.375a.01.01,0,0,0,.013.015,1.081,1.081,0,0,1,1.369.131l9.751,9.754a1.118,1.118,0,0,0,1.5.1A1.081,1.081,0,0,0,819.54,557.731Z" transform="translate(-795.44 -532.543)" fill="url(#linear-gradient-2)"/>
      <path id="Path-3" data-name="Path" d="M817.794,493.639a1.082,1.082,0,0,0,1.531,0l5.927-5.93a1.08,1.08,0,1,0-1.527-1.528l-6.687,6.69a.01.01,0,0,0,0,.015Z" transform="translate(-803.535 -483.508)" fill="url(#linear-gradient-3)"/>
      <path id="Path-4" data-name="Path" d="M764.73,476.286l9.782,9.786a1.09,1.09,0,0,0,1.542,0l1.375-1.375a.01.01,0,0,0-.013-.015,1.081,1.081,0,0,1-1.369-.131L766.3,474.8a1.117,1.117,0,0,0-1.495-.105A1.081,1.081,0,0,0,764.73,476.286Z" transform="translate(-761.757 -474.452)" fill="url(#linear-gradient-4)"/>
      <path id="Path-5" data-name="Path" d="M770.689,506.526a1.091,1.091,0,0,0,0-1.543L764.81,499.1a1.118,1.118,0,0,0-1.5-.105,1.082,1.082,0,0,0-.069,1.6l6.681,6.683a.011.011,0,0,0,.015,0Z" transform="translate(-760.577 -493.747)" fill="url(#linear-gradient-5)"/>
      <path id="Path-6" data-name="Path" d="M753.353,542.278l9.783-9.786a1.092,1.092,0,0,0,0-1.543l-1.374-1.375a.01.01,0,0,0-.015.013,1.081,1.081,0,0,1-.131,1.37l-9.751,9.754a1.118,1.118,0,0,0-.1,1.5A1.08,1.08,0,0,0,753.353,542.278Z" transform="translate(-751.521 -518.209)" fill="url(#linear-gradient-6)"/>
      <path id="Path-7" data-name="Path" d="M832.317,540.894a1.084,1.084,0,0,0,0,1.532l5.935,5.937a1.08,1.08,0,1,0,1.527-1.528l-6.7-6.7a.011.011,0,0,0-.015,0Z" transform="translate(-815.419 -526.596)" fill="url(#linear-gradient-7)"/>
      <path id="Path-8" data-name="Path" d="M834.837,487.8l-9.783,9.786a1.092,1.092,0,0,0,0,1.543l1.374,1.375a.01.01,0,1,0,.015-.013,1.081,1.081,0,0,1,.131-1.37l9.751-9.754a1.119,1.119,0,0,0,.1-1.5A1.08,1.08,0,0,0,834.837,487.8Z" transform="translate(-809.649 -484.801)" fill="url(#linear-gradient-8)"/>
    </g>
  </g>
</svg>
