<svg xmlns="http://www.w3.org/2000/svg" width="156.131" height="136.186" viewBox="0 0 156.131 136.186">
  <path id="Award" d="M-105.588-1396.465a7.257,7.257,0,0,1-5.853-4.859s-.173-.1,1.349-.724c5.587-2.307,11.641,3.426,11.641,3.426s-3.758,2.2-6.48,2.2A4.2,4.2,0,0,1-105.588-1396.465ZM-163-1398.622s6.053-5.733,11.641-3.426c1.523.628,1.35.724,1.35.724a7.259,7.259,0,0,1-5.854,4.859,4.188,4.188,0,0,1-.656.049C-159.238-1396.417-163-1398.622-163-1398.622Zm25.877-1.164c-.1-.014-.763-.1-1.64-.21-1.876-.238-4.442-.561-4.96-.639-27.066-4.131-55.5-29.138-56.242-63.842a64.6,64.6,0,0,1,33.086-57.634.692.692,0,0,1,.936.253.672.672,0,0,1-.256.922,63.252,63.252,0,0,0-32.4,56.43c.723,33.992,28.574,58.487,55.081,62.531.5.076,3.162.413,4.923.635,1.677.212,1.678.212,1.728.223a.677.677,0,0,1,.521.807.685.685,0,0,1-.669.531A1,1,0,0,1-137.12-1399.785Zm12.008-.546a.675.675,0,0,1,.523-.783c.05-.012.051-.012,1.718-.221,1.765-.224,4.434-.562,4.934-.637,26.507-4.045,54.356-28.539,55.08-62.531a63.252,63.252,0,0,0-32.395-56.43.669.669,0,0,1-.255-.922.689.689,0,0,1,.934-.253,64.6,64.6,0,0,1,33.087,57.634c-.74,34.7-29.177,59.711-56.243,63.842-.518.078-3.2.416-4.968.64-.887.113-1.558.2-1.636.209a.805.805,0,0,1-.1.007A.687.687,0,0,1-125.112-1400.332Zm24.8-4.754s-.187-.065,1.2-.945c5.1-3.231,12.066,1.377,12.066,1.377s-3.889,3.306-6.649,3.348h-.136A7.291,7.291,0,0,1-100.315-1405.085Zm-67.435,3.78c-2.76-.042-6.648-3.348-6.648-3.348s6.968-4.608,12.066-1.377c1.388.88,1.2.945,1.2.945a7.292,7.292,0,0,1-6.481,3.781Zm54.791-3.307a8.012,8.012,0,0,1,.7-7.9c1.577-2.4,5.409-3.616,5.409-3.616s.73,8.3-4.686,10.982a4.731,4.731,0,0,1-1.372.556C-112.966-1404.587-112.959-1404.612-112.959-1404.612Zm-36.951-.531c-5.416-2.684-4.686-10.982-4.686-10.982s3.831,1.219,5.41,3.616a8.012,8.012,0,0,1,.7,7.9s.006.025-.05.025A4.731,4.731,0,0,1-149.91-1405.143Zm59.891-5.556s-.2-.031,1.017-1.136c4.452-4.055,12.125-.713,12.125-.713s-3.248,3.921-5.96,4.436a8.075,8.075,0,0,1-1.508.146A7.326,7.326,0,0,1-90.02-1410.7Zm-88.589,2.588c-2.712-.515-5.961-4.436-5.961-4.436s7.673-3.343,12.126.713c1.212,1.1,1.016,1.136,1.016,1.136a7.326,7.326,0,0,1-5.673,2.733A8.075,8.075,0,0,1-178.609-1408.111Zm76.22.048a8.019,8.019,0,0,1-.7-7.9c1.133-2.632,4.692-4.488,4.692-4.488s2.179,8.047-2.685,11.618c-.932.684-1.2.786-1.276.786C-102.39-1408.045-102.389-1408.063-102.389-1408.063Zm-57.977-.767c-4.863-3.571-2.685-11.618-2.685-11.618s3.56,1.857,4.692,4.488a8.017,8.017,0,0,1-.7,7.9s0,.019-.031.019C-159.166-1408.045-159.433-1408.146-160.366-1408.83Zm67.78-4.445a8.041,8.041,0,0,1-2.078-7.656c.654-2.786,3.832-5.226,3.832-5.226s3.56,7.552-.6,11.9c-.841.879-1.069.993-1.13.993C-92.585-1413.262-92.586-1413.275-92.586-1413.275Zm-77.429-.979c-4.161-4.351-.6-11.9-.6-11.9s3.179,2.44,3.833,5.226a8.037,8.037,0,0,1-2.079,7.656s0,.013-.023.013C-168.946-1413.262-169.174-1413.375-170.015-1414.255Zm89.147-3.738s-.2,0,.8-1.293c3.672-4.756,11.816-2.782,11.816-2.782s-2.51,4.42-5.09,5.39a7.623,7.623,0,0,1-2.709.512A7.393,7.393,0,0,1-80.868-1417.992Zm-107.239,1.315c-2.579-.97-5.089-5.39-5.089-5.39s8.143-1.975,11.815,2.782c1,1.3.8,1.293.8,1.293a7.394,7.394,0,0,1-4.819,1.827A7.623,7.623,0,0,1-188.106-1416.677Zm104.259-3.414a8.073,8.073,0,0,1-3.393-7.183c.155-2.856,2.855-5.8,2.855-5.8s4.833,6.827,1.5,11.824c-.7,1.053-.894,1.173-.944,1.173A.017.017,0,0,1-83.848-1420.091Zm-94.714-1.162c-3.334-5,1.5-11.824,1.5-11.824s2.7,2.948,2.855,5.8a8.07,8.07,0,0,1-3.393,7.183.017.017,0,0,1-.018.011C-177.668-1420.08-177.86-1420.2-178.562-1421.253Zm105.424-5.492s-.2.036.562-1.412c2.781-5.314,11.147-4.766,11.147-4.766s-1.695,4.783-4.065,6.182a7.36,7.36,0,0,1-3.8,1.074A7.412,7.412,0,0,1-73.138-1426.745Zm-122.817,0c-2.369-1.4-4.064-6.182-4.064-6.182s8.366-.548,11.147,4.766c.755,1.448.561,1.412.561,1.412a7.408,7.408,0,0,1-3.848,1.077A7.368,7.368,0,0,1-195.954-1426.741ZM-76.44-1428.3a8.118,8.118,0,0,1-4.6-6.494c-.35-2.839,1.791-6.2,1.791-6.2s5.96,5.893,3.557,11.388c-.524,1.2-.685,1.318-.729,1.318A.015.015,0,0,1-76.44-1428.3Zm-109.31-1.309c-2.4-5.495,3.556-11.388,3.556-11.388s2.142,3.365,1.79,6.2a8.118,8.118,0,0,1-4.6,6.494.015.015,0,0,1-.014.008C-185.065-1428.292-185.226-1428.412-185.75-1429.609Zm118.687-7.082s-.185.071.306-1.486c1.8-5.711,10.139-6.607,10.139-6.607s-.828,5-2.915,6.788a7.247,7.247,0,0,1-4.8,1.814A7.231,7.231,0,0,1-67.063-1436.692Zm-134.851-1.3c-2.086-1.786-2.915-6.788-2.915-6.788s8.337.9,10.139,6.607c.491,1.557.305,1.486.305,1.486a7.229,7.229,0,0,1-2.726.509A7.247,7.247,0,0,1-201.914-1438Zm131.325.341a8.166,8.166,0,0,1-5.676-5.605c-.842-2.736.675-6.418.675-6.418s6.9,4.783,5.5,10.606c-.314,1.308-.451,1.423-.489,1.423A.015.015,0,0,1-70.589-1437.656Zm-120.772-1.417c-1.4-5.823,5.5-10.606,5.5-10.606s1.517,3.682.673,6.418a8.165,8.165,0,0,1-5.674,5.605.015.015,0,0,1-.013.005C-190.909-1437.65-191.047-1437.765-191.361-1439.073Zm128.532-8.454s-.17.1.04-1.516c.771-5.935,8.824-8.246,8.824-8.246s.064,5.067-1.678,7.185a7.262,7.262,0,0,1-5.737,2.725A6.39,6.39,0,0,1-62.829-1447.527ZM-205.8-1450.1c-1.742-2.118-1.678-7.185-1.678-7.185s8.053,2.311,8.824,8.246c.211,1.616.04,1.516.04,1.516a6.39,6.39,0,0,1-1.449.148A7.26,7.26,0,0,1-205.8-1450.1Zm139.333,2.231a8.21,8.21,0,0,1-6.575-4.546c-1.312-2.549-.464-6.434-.464-6.434s7.64,3.524,7.285,9.5c-.082,1.38-.2,1.485-.235,1.485A.015.015,0,0,1-66.47-1447.873Zm-128.75-1.481c-.357-5.975,7.284-9.5,7.284-9.5s.848,3.885-.464,6.434a8.209,8.209,0,0,1-6.574,4.546.015.015,0,0,1-.01,0C-195.02-1447.87-195.139-1447.975-195.221-1449.355Zm123.735-12.635c-1.74-2.287-1.589-6.259-1.589-6.259s8.145,2.161,8.844,8.106c.191,1.62.019,1.5.019,1.5a4.912,4.912,0,0,1-.619.032A8.32,8.32,0,0,1-71.486-1461.99Zm-125.749,3.348s-.172.12.019-1.5c.7-5.945,8.844-8.106,8.844-8.106s.151,3.972-1.589,6.259a8.322,8.322,0,0,1-6.655,3.38A4.912,4.912,0,0,1-197.235-1458.642Zm136.67-.284s-.151.129-.228-1.5c-.283-5.975,7.241-9.635,7.241-9.635s.953,4.98-.391,7.364a7.313,7.313,0,0,1-6.378,3.776C-60.477-1458.92-60.565-1458.926-60.565-1458.926Zm-146.94-3.77c-1.343-2.384-.391-7.364-.391-7.364s7.522,3.659,7.241,9.635c-.078,1.628-.228,1.5-.228,1.5s-.087.006-.244.006A7.315,7.315,0,0,1-207.5-1462.7Zm135.872-8.987c-2.116-1.952-2.664-5.891-2.664-5.891s8.4.731,10.133,6.466c.473,1.561.284,1.474.284,1.474a7.118,7.118,0,0,1-1.986.254A8.372,8.372,0,0,1-71.633-1471.684Zm-125.934,2.05s-.19.086.283-1.474c1.734-5.736,10.134-6.466,10.134-6.466s-.548,3.938-2.665,5.891a8.367,8.367,0,0,1-5.765,2.3A7.118,7.118,0,0,1-197.567-1469.633Zm136.742-2.344c-1.329-5.837,5.437-10.73,5.437-10.73s1.813,4.741.91,7.319a7.288,7.288,0,0,1-5.86,4.85.012.012,0,0,1-.01,0C-60.385-1470.535-60.521-1470.642-60.826-1471.978Zm-140.282,1.439a7.287,7.287,0,0,1-5.86-4.85c-.9-2.578.91-7.319.91-7.319s6.765,4.893,5.436,10.73c-.3,1.336-.44,1.443-.476,1.443A.012.012,0,0,1-201.108-1470.539ZM-73.481-1481.2c-2.426-1.561-3.659-5.344-3.659-5.344s8.4-.721,11.117,4.629c.741,1.459.538,1.4.538,1.4a7.829,7.829,0,0,1-3.353.715A8.489,8.489,0,0,1-73.481-1481.2Zm-122.479.688s-.2.055.537-1.4c2.714-5.349,11.117-4.629,11.117-4.629s-1.233,3.784-3.659,5.344a8.492,8.492,0,0,1-4.644,1.4A7.827,7.827,0,0,1-195.961-1480.516Zm133.07-2.83c-2.335-5.521,3.468-11.5,3.468-11.5s2.62,4.357,2.183,7.05a7.243,7.243,0,0,1-4.918,5.781.015.015,0,0,1-.014.006C-62.212-1482.009-62.373-1482.124-62.89-1483.347Zm-136.4,1.331a7.243,7.243,0,0,1-4.919-5.781c-.436-2.693,2.183-7.05,2.183-7.05s5.8,5.979,3.468,11.5c-.518,1.223-.678,1.337-.719,1.337A.015.015,0,0,1-199.29-1482.016Zm122.314-8.249c-2.663-1.12-4.542-4.636-4.542-4.636s8.148-2.151,11.761,2.652c.986,1.309.777,1.291.777,1.291a8.054,8.054,0,0,1-4.588,1.4A8.749,8.749,0,0,1-76.976-1490.264Zm-115.491-.693s-.21.019.778-1.291c3.614-4.8,11.761-2.652,11.761-2.652s-1.879,3.516-4.544,4.636a8.738,8.738,0,0,1-3.406.709A8.054,8.054,0,0,1-192.467-1490.957Zm125.545-3.235c-3.27-5.036,1.4-11.919,1.4-11.919s3.345,3.841,3.388,6.569A7.2,7.2,0,0,1-65.965-1493s0,.009-.016.009C-66.03-1493-66.219-1493.11-66.922-1494.192ZM-195.481-1493a7.206,7.206,0,0,1-3.829-6.537c.045-2.728,3.389-6.569,3.389-6.569s4.665,6.883,1.4,11.919c-.7,1.082-.892,1.2-.941,1.2C-195.478-1493-195.481-1493-195.481-1493Zm113.471-5.583c-2.819-.646-5.288-3.785-5.288-3.785s7.644-3.516,12.049.594c1.2,1.12.992,1.139.992,1.139a8.13,8.13,0,0,1-5.706,2.289A9.151,9.151,0,0,1-82.01-1498.587Zm-105.179-2.052s-.21-.019.991-1.139c4.4-4.109,12.05-.594,12.05-.594s-2.47,3.139-5.29,3.785a9.144,9.144,0,0,1-2.046.237A8.129,8.129,0,0,1-187.189-1500.639Zm114.391-3.539c-4.106-4.4-.723-11.977-.723-11.977s3.97,3.209,4.493,5.888a7.173,7.173,0,0,1-2.621,7.095s0,.011-.021.011C-71.729-1503.162-71.953-1503.273-72.8-1504.178Zm-117,1.005a7.171,7.171,0,0,1-2.62-7.095c.522-2.678,4.493-5.888,4.493-5.888s3.383,7.58-.722,11.977c-.846.905-1.07,1.016-1.13,1.016C-189.8-1503.162-189.8-1503.173-189.8-1503.173Zm101.37-2.747c-2.891-.152-5.874-2.821-5.874-2.821s6.911-4.774,11.972-1.481c1.38.9,1.175.95,1.175.95a8.181,8.181,0,0,1-6.762,3.365C-88.086-1505.906-88.256-1505.911-88.43-1505.92Zm-91.861-3.352s-.2-.053,1.176-.95c5.061-3.292,11.97,1.481,11.97,1.481s-2.983,2.668-5.873,2.821c-.174.009-.344.014-.511.014A8.181,8.181,0,0,1-180.291-1509.271Zm77.969-4.539s5.966-5.887,11.528-3.512c1.517.647,1.325.734,1.325.734a8.176,8.176,0,0,1-6.573,4.548,5.343,5.343,0,0,1-.659.039A12.692,12.692,0,0,1-102.322-1513.81Zm-63.084,1.77a8.174,8.174,0,0,1-6.573-4.548s-.192-.087,1.325-.734c5.561-2.375,11.527,3.512,11.527,3.512a12.687,12.687,0,0,1-5.621,1.809A5.343,5.343,0,0,1-165.406-1512.04Zm85.064-.966c-4.815-3.627-2.816-11.672-2.816-11.672s4.474,2.479,5.459,5.027a7.145,7.145,0,0,1-1.333,7.437s0,.015-.03.015C-79.136-1512.2-79.4-1512.3-80.342-1513.005Zm-102.073.792a7.147,7.147,0,0,1-1.333-7.437c.985-2.548,5.459-5.027,5.459-5.027s2,8.045-2.817,11.672c-.94.707-1.205.807-1.28.807C-182.415-1512.2-182.415-1512.213-182.415-1512.213Zm93.092-8.192c-5.38-2.746-4.825-11.011-4.825-11.011s4.842,1.674,6.259,4.015a7.129,7.129,0,0,1,0,7.551s0,.022-.048.022A4.709,4.709,0,0,1-89.322-1520.405Zm-84.231.554a7.128,7.128,0,0,1-.005-7.551c1.417-2.341,6.259-4.015,6.259-4.015s.554,8.266-4.827,11.011a4.7,4.7,0,0,1-1.38.576C-173.558-1519.829-173.553-1519.851-173.553-1519.851Zm68.379-3.013c-2.438-1.543-3.7-5.319-3.7-5.319s8.4-.78,11.15,4.551c.751,1.453.549,1.4.549,1.4a7.84,7.84,0,0,1-3.406.74A8.5,8.5,0,0,1-105.174-1522.864Zm-59.1.632s-.2.053.549-1.4c2.754-5.332,11.149-4.551,11.149-4.551s-1.26,3.776-3.7,5.319a8.5,8.5,0,0,1-4.6,1.372A7.833,7.833,0,0,1-164.273-1522.232Z" transform="translate(208.789 1532.103)" fill="#b18832" stroke="rgba(0,0,0,0)" stroke-miterlimit="10" stroke-width="1"/>
</svg>
